<svg width="45" height="45" viewBox="0 0 45 45" fill="none" xmlns="http://www.w3.org/2000/svg">
<g clip-path="url(#clip0_1_219)">
<path d="M18.75 0C29.105 0 37.5 7.64297 37.5 17.0705C37.5 26.498 29.105 34.1409 18.75 34.1409C17.755 34.1409 16.78 34.0692 15.8263 33.9342C11.7988 38.4469 7.1475 39.2569 2.5 39.375V38.2711C5.01 36.893 7.03125 34.3828 7.03125 31.5155C7.03125 31.1147 7.00375 30.7223 6.9525 30.3384C2.7125 27.2095 0 22.4283 0 17.0719C0 7.64438 8.395 0.00140625 18.75 0.00140625V0ZM38.9062 38.2627C38.9062 40.7208 40.325 42.8723 42.5 44.0536V45C38.4712 44.8988 34.7738 44.2041 31.2838 40.3369C30.4575 40.4536 29.6125 40.5141 28.75 40.5141C25.0212 40.5141 21.585 39.382 18.8438 37.4808C24.495 37.4583 29.83 35.422 33.8763 31.7377C35.915 29.8814 37.525 27.7017 38.6575 25.2619C39.8587 22.6744 40.4688 19.9195 40.4688 17.0705C40.4688 16.612 40.4512 16.155 40.42 15.7008C43.255 18.3347 45 21.9248 45 25.882C45 30.4734 42.65 34.5712 38.975 37.253C38.93 37.582 38.9062 37.9195 38.9062 38.2627Z" fill="#61A568"/>
</g>
<defs>
<clipPath id="clip0_1_219">
<rect width="45" height="45" fill="white"/>
</clipPath>
</defs>
</svg>
