<svg width="45" height="45" viewBox="0 0 45 45" fill="none" xmlns="http://www.w3.org/2000/svg">
<g clip-path="url(#clip0_1_224)">
<path d="M22.5 0C10.073 0 0 10.073 0 22.5C0 34.927 10.073 45 22.5 45C34.927 45 45 34.927 45 22.5C45 10.073 34.927 0 22.5 0ZM22.5 42.1875C19.7339 42.1875 17.1 41.6152 14.7122 40.5858L24.9581 29.0588C25.1873 28.8014 25.3139 28.4695 25.3139 28.125V23.9062C25.3139 23.13 24.6839 22.5 23.9077 22.5C18.9422 22.5 13.7039 17.3377 13.6519 17.287C13.3875 17.0227 13.0303 16.875 12.6577 16.875H7.03266C6.25641 16.875 5.62641 17.505 5.62641 18.2812V26.7188C5.62641 27.2517 5.92734 27.7383 6.40406 27.9759L11.2514 30.4003V38.6564C6.15094 35.0986 2.81391 29.1895 2.81391 22.5C2.81391 19.4808 3.49453 16.6205 4.70953 14.0625H9.84516C10.2178 14.0625 10.5764 13.9148 10.8394 13.6505L16.4644 8.02547C16.7288 7.76109 16.8764 7.40391 16.8764 7.03125V3.62953C18.6595 3.09938 20.5467 2.8125 22.5014 2.8125C25.5952 2.8125 28.5216 3.52688 31.1273 4.79812C30.9445 4.95141 30.7673 5.11312 30.5986 5.28328C29.0053 6.87656 28.1278 8.99578 28.1278 11.25C28.1278 13.5042 29.0053 15.622 30.5986 17.2167C32.2003 18.8184 34.3434 19.6889 36.5597 19.6889C36.6989 19.6889 36.8381 19.6861 36.9773 19.6791C37.5848 21.9558 38.6803 27.8817 36.6075 36.0408C36.5878 36.1181 36.5766 36.1941 36.5709 36.27C32.9977 39.9206 28.0153 42.1875 22.5028 42.1875H22.5Z" fill="#61A568"/>
</g>
<defs>
<clipPath id="clip0_1_224">
<rect width="45" height="45" fill="white"/>
</clipPath>
</defs>
</svg>
