<svg width="20" height="15" viewBox="0 0 20 15" fill="none" xmlns="http://www.w3.org/2000/svg">
<path d="M18.125 0H1.875C0.84375 0 0 0.84375 0 1.875V13.125C0 14.1562 0.84375 15 1.875 15H18.125C19.1562 15 20 14.1562 20 13.125V1.875C20 0.84375 19.1562 0 18.125 0ZM1.875 1.25H18.125C18.4638 1.25 18.75 1.53621 18.75 1.875V3.75H1.25V1.875C1.25 1.53621 1.53621 1.25 1.875 1.25ZM18.125 13.75H1.875C1.53621 13.75 1.25 13.4638 1.25 13.125V7.5H18.75V13.125C18.75 13.4638 18.4638 13.75 18.125 13.75ZM2.5 10H3.75V12.5H2.5V10ZM5 10H6.25V12.5H5V10ZM7.5 10H8.75V12.5H7.5V10Z" fill="#F5F5F5"/>
</svg>
