<svg width="45" height="45" viewBox="0 0 45 45" fill="none" xmlns="http://www.w3.org/2000/svg">
<g clip-path="url(#clip0_1_237)">
<path d="M13.3566 36.7383C14.5491 36.7383 15.7205 36.1617 16.432 35.0944C17.5627 33.3984 17.1042 31.1063 15.4083 29.9756L12.5044 28.0392C13.0008 27.9042 13.5239 27.8297 14.0639 27.8297C17.3334 27.8297 19.9828 30.4791 19.9828 33.7486C19.9828 37.0181 17.332 39.6675 14.0639 39.6675C10.8816 39.6675 8.28703 37.1573 8.15063 34.0088L11.3133 36.1167C11.9433 36.5358 12.6534 36.7369 13.358 36.7369L13.3566 36.7383ZM37.5005 0C41.6264 0 45 3.375 45 7.50094V37.4991C45 41.6278 41.6264 45 37.5005 45H7.50094C3.375 45 0 41.6278 0 37.4991V28.5764L5.3325 32.1314C4.82063 34.9073 5.63766 37.8802 7.785 40.0275C11.2528 43.4953 16.8736 43.4953 20.3414 40.0275C22.4719 37.897 23.2917 34.9552 22.8052 32.1975L33.75 22.3988C35.782 22.1077 37.7409 21.1795 39.3047 19.6158C43.1494 15.7711 43.1494 9.53859 39.3047 5.69531C35.46 1.85203 29.2275 1.85063 25.3828 5.69531C23.8191 7.25906 22.8923 9.21797 22.5998 11.25L13.6041 24.8836C12.2048 24.9553 10.8183 25.3561 9.57375 26.0873L0 19.7044V7.50094C0 3.375 3.375 0 7.50094 0H37.5005V0ZM39.375 12.6562C39.375 8.77359 36.2264 5.625 32.3438 5.625C28.4611 5.625 25.3125 8.77359 25.3125 12.6562C25.3125 16.5389 28.4611 19.6875 32.3438 19.6875C36.2264 19.6875 39.375 16.5389 39.375 12.6562ZM28.125 12.6562C28.125 10.3261 30.0136 8.4375 32.3438 8.4375C34.6739 8.4375 36.5625 10.3261 36.5625 12.6562C36.5625 14.9864 34.6739 16.875 32.3438 16.875C30.0136 16.875 28.125 14.9864 28.125 12.6562Z" fill="#61A568"/>
</g>
<defs>
<clipPath id="clip0_1_237">
<rect width="45" height="45" fill="white"/>
</clipPath>
</defs>
</svg>
