<svg width="21" height="20" viewBox="0 0 21 20" fill="none" xmlns="http://www.w3.org/2000/svg">
<g clip-path="url(#clip0_1_190)">
<path d="M13.4454 15.0512V14.0206C14.6796 13.245 15.6863 11.31 15.6863 9.37561C15.6863 6.26873 15.6863 3.75061 12.3249 3.75061C8.9636 3.75061 8.9636 6.26873 8.9636 9.37561C8.9636 11.3106 9.97033 13.245 11.2045 14.0206V15.0512C7.40394 15.3981 4.48181 17.4812 4.48181 20H20.1681C20.1681 17.4812 17.246 15.3975 13.4454 15.0512Z" fill="#F5F5F5"/>
<path d="M5.72829 15.5337C6.69636 14.8275 7.90028 14.2906 9.22577 13.9631C8.96247 13.6156 8.72325 13.2281 8.51709 12.8106C7.98487 11.7319 7.70308 10.5437 7.70308 9.375C7.70308 7.69437 7.70308 6.1075 8.23866 4.80937C8.75854 3.54937 9.69412 2.76875 11.0263 2.47562C10.73 0.981875 9.94174 0 7.84314 0C4.48179 0 4.48179 2.51812 4.48179 5.625C4.48179 7.56 5.48852 9.49437 6.72269 10.27V11.3006C2.92213 11.6475 0 13.7306 0 16.2494H4.88459C5.13894 15.9975 5.42017 15.7575 5.72829 15.5331V15.5337Z" fill="#F5F5F5"/>
</g>
<defs>
<clipPath id="clip0_1_190">
<rect width="20.1681" height="20" fill="white"/>
</clipPath>
</defs>
</svg>
