<svg width="45" height="46" viewBox="0 0 45 46" fill="none" xmlns="http://www.w3.org/2000/svg">
<path d="M45 23.2912C45 10.9734 34.927 0.989014 22.5 0.989014C10.073 0.989014 0 10.9734 0 23.2912C0 25.9661 0.475313 28.5309 1.34719 30.9075C0.490781 32.3543 0 34.0381 0 35.8362C0 40.7511 3.6675 44.8171 8.4375 45.4945V26.1794C7.03547 26.3787 5.72766 26.8694 4.58156 27.59C4.34531 26.4261 4.21875 25.2218 4.21875 23.9882C4.21875 13.9801 12.4031 5.86763 22.5 5.86763C32.5969 5.86763 40.7812 13.9801 40.7812 23.9882C40.7812 25.2218 40.6575 26.4261 40.4198 27.59C39.2723 26.8694 37.9659 26.3773 36.5625 26.178V45.4945C41.3325 44.8185 45 40.7525 45 35.8362C45 34.0381 44.5092 32.3543 43.6528 30.9075C44.5247 28.5309 45 25.9661 45 23.2898V23.2912Z" fill="#61A568"/>
</svg>
