<svg width="45" height="46" viewBox="0 0 45 46" fill="none" xmlns="http://www.w3.org/2000/svg">
<path d="M36.5625 7.33596V0.978027H8.4375V7.33596H0V13.6939C0 18.9614 3.77719 23.2308 8.4375 23.2308C9.31922 23.2308 10.17 23.0782 10.9702 22.7937C12.9994 26.0728 16.0945 28.4459 19.6875 29.2708V39.1256H16.875C13.7686 39.1256 11.25 41.9724 11.25 45.4835H33.75C33.75 41.9724 31.2314 39.1256 28.125 39.1256H25.3125V29.2708C28.9055 28.4459 32.0006 26.0728 34.0298 22.7937C34.8286 23.0782 35.6794 23.2308 36.5625 23.2308C41.2228 23.2308 45 18.9614 45 13.6939V7.33596H36.5625ZM8.4375 19.4558C5.62641 19.4558 3.33984 16.8713 3.33984 13.6939V10.5149H8.4375V13.6939C8.4375 15.6903 8.76375 17.5992 9.35859 19.3604C9.05906 19.4224 8.7525 19.4558 8.4375 19.4558ZM41.6602 13.6939C41.6602 16.8713 39.3736 19.4558 36.5625 19.4558C36.2475 19.4558 35.9409 19.4224 35.6414 19.3604C36.2362 17.6008 36.5625 15.6903 36.5625 13.6939V10.5149H41.6602V13.6939Z" fill="#61A568"/>
</svg>
